<svg width="14" height="15" viewBox="0 0 14 15" fill="none" xmlns="http://www.w3.org/2000/svg">
<path d="M13.9748 11.3291L13.9676 11.2883C13.9557 11.2143 13.9438 11.1352 13.9271 11.0587C13.808 10.5255 13.5103 10.1684 13.0434 10C12.8338 9.92347 12.5861 9.83928 12.3312 9.77551C11.8596 9.65816 11.3451 9.53571 10.7139 9.39541C10.4638 9.33928 10.2113 9.28826 9.96122 9.23979C9.8326 9.21428 9.70636 9.18877 9.57773 9.16326C9.49198 9.14541 9.42052 9.16837 9.36098 9.23469C9.1728 9.43877 8.98225 9.64286 8.7917 9.84439L8.7774 9.85969C8.58447 10.0663 8.39153 10.273 8.1986 10.4796C7.59597 10.2449 7.03621 9.89541 6.48837 9.41071C5.48796 8.52551 4.69478 7.42602 4.12312 6.1403C4.35416 5.8903 4.58521 5.63775 4.81388 5.38775C5.03778 5.14285 5.26168 4.90051 5.48558 4.65816C5.54751 4.58928 5.56657 4.51275 5.54275 4.42091C5.4832 4.20153 5.42603 3.98214 5.36887 3.7602C5.26168 3.35204 5.15211 2.93112 5.03778 2.5204L4.99728 2.375C4.8639 1.8903 4.72813 1.38775 4.51614 0.931117C4.30176 0.461729 3.97544 0.165811 3.54907 0.0535659C2.86784 -0.125006 2.13897 0.183668 1.76501 0.382648C1.2791 0.642852 0.86464 1.03061 0.564517 1.5051C0.190554 2.10459 0 2.82908 0 3.66071C0 4.35459 0.138152 5.11479 0.400164 5.85714C0.590718 6.40051 0.833675 6.94132 1.14094 7.5051C1.72213 8.57143 2.44862 9.60714 3.43236 10.7653C4.09692 11.5485 4.8234 12.2449 5.588 12.8342C6.52886 13.5612 7.45067 14.1046 8.41297 14.4974C8.94176 14.7117 9.7397 15 10.571 15C10.8544 15 11.126 14.9668 11.3808 14.9005C11.4452 14.8827 11.5119 14.8648 11.5762 14.8418C12.0049 14.699 12.417 14.4592 12.7648 14.148C13.0792 13.8673 13.3459 13.5281 13.5555 13.1403C13.6699 12.9286 13.7675 12.7015 13.8438 12.4617C13.92 12.2245 13.9891 11.9719 13.9986 11.7168C14.0034 11.5918 13.9962 11.4617 13.9748 11.3291ZM3.93733 5.0153C3.70628 5.2653 3.47523 5.5153 3.2418 5.76275C3.17511 5.83673 3.15844 5.91836 3.19178 6.01275C3.71581 7.5051 4.56616 8.80357 5.71663 9.8801C6.3264 10.449 6.98619 10.9056 7.68172 11.2347C7.80796 11.2934 7.93658 11.3469 8.06044 11.398C8.13667 11.4286 8.21527 11.4617 8.29149 11.4949C8.40582 11.5459 8.47966 11.4668 8.50825 11.4388L8.51301 11.4337C8.62734 11.3112 8.74406 11.1913 8.85839 11.0689L8.86315 11.0638C9.15137 10.7602 9.44911 10.4439 9.74208 10.1352C9.74447 10.1327 9.74685 10.1301 9.74923 10.1301C9.75161 10.1301 9.75161 10.1301 9.75399 10.1301C10.0208 10.1888 10.2852 10.2474 10.5519 10.3061L10.5638 10.3087C11.0331 10.4107 11.5166 10.5179 11.9906 10.625C12.1312 10.6582 12.2741 10.7015 12.4146 10.7449C12.5075 10.773 12.6028 10.8036 12.6957 10.8291C12.9172 10.8903 13.0482 11.0459 13.1077 11.3163C13.184 11.6633 13.1459 12.0051 12.9934 12.3342C12.6719 13.0255 12.2312 13.5153 11.6429 13.8265C11.2189 14.051 10.7592 14.1327 10.2375 14.0714C9.48722 13.9847 8.71547 13.7219 7.87704 13.2653C7.01716 12.7959 6.1549 12.1633 5.23786 11.3316C4.48041 10.6429 3.89922 10.0408 3.40854 9.43622C2.86784 8.77041 2.39384 8.05867 2.00082 7.32143C1.59827 6.56887 1.30768 5.85204 1.1076 5.12755C0.969445 4.62755 0.883695 4.08418 0.881313 3.71428C0.874167 3.07908 0.995646 2.58418 1.26242 2.15561C1.62447 1.58418 2.12706 1.19897 2.75827 1.0102C2.85593 0.982138 2.95359 0.966832 3.05363 0.966832C3.13938 0.966832 3.22275 0.977036 3.30612 0.999995C3.54193 1.06122 3.69199 1.19897 3.76821 1.42091L3.80156 1.51785C3.90398 1.82142 4.01117 2.13775 4.0993 2.44898C4.21839 2.86734 4.33034 3.29591 4.43991 3.70918C4.49232 3.90816 4.54472 4.10714 4.5995 4.30612C4.37798 4.54081 4.15646 4.77806 3.93733 5.0153Z" fill="black"/>
</svg>
