<svg width="60" height="32" viewBox="0 0 60 32" fill="none" xmlns="http://www.w3.org/2000/svg">
<path d="M59.5535 2.45953C58.8051 1.88305 55.9269 1.913 53.0733 1.92048C50.154 1.93546 47.2593 1.95043 46.5932 2.19001C45.9764 2.41461 44.5784 5.47673 42.7692 8.62868C40.7216 12.1999 38.1805 15.6289 36.5852 15.6064C34.5128 15.5765 34.9898 9.71427 35.1132 5.40935C35.1954 2.55686 34.6855 1.66593 34.225 1.38143C33.1148 0.707616 30.105 0.0412877 30.105 0.0412877C30.105 0.0412877 21.0756 -0.58012 19.7845 2.99859C21.5032 3.20073 24.4637 2.7066 23.3206 13.7272C23.2631 14.2588 21.9391 18.8033 17.7204 12.6566C16.676 11.1368 12.6301 1.95792 11.2403 1.92048C6.56109 1.80818 1.98059 1.6285 0.344114 2.45953C-1.15257 3.2157 2.3671 9.55705 8.29626 18.0247C13.1481 24.9425 18.2878 30.348 27.1528 31.7106C28.8057 31.8603 33.1724 32.04 34.5211 31.4411C35.4585 31.0218 34.3155 25.0248 37.4651 24.4633C38.8795 24.2163 44.2577 30.6924 46.3054 31.4411C47.5471 31.8903 50.2773 32.0625 53.0815 31.9801C56.1078 31.8903 59.5288 32.2197 59.8577 30.3704C60.5978 26.2302 50.7296 20.8547 50.4336 18.2942C50.2198 16.4599 54.0437 13.0833 56.0338 10.5154C58.4433 7.38587 61.0666 3.61999 59.5535 2.45953Z" fill="white"/>
</svg>
