<svg width="50" height="90" viewBox="0 0 50 90" fill="none" xmlns="http://www.w3.org/2000/svg">
<path fill-rule="evenodd" clip-rule="evenodd" d="M40 1H10C5.02944 1 1 5.02944 1 10V80C1 84.9706 5.02944 89 10 89H40C44.9706 89 49 84.9706 49 80V10C49 5.02944 44.9706 1 40 1ZM10 0C4.47715 0 0 4.47715 0 10V80C0 85.5229 4.47715 90 10 90H40C45.5228 90 50 85.5229 50 80V10C50 4.47715 45.5228 0 40 0H10Z" fill="black"/>
<path d="M25.004 62.9971L23.5897 61.5829L30.6608 54.5118L32.075 55.926L25.004 62.9971Z" fill="black"/>
<path d="M26.418 61.5825L25.004 62.9971L17.9327 55.9257L19.347 54.5115L26.418 61.5825Z" fill="black"/>
<path d="M25.9297 61.9292H23.9297L23.9297 27.9292H25.9297L25.9297 61.9292Z" fill="black"/>
</svg>
