<svg width="173" height="46" viewBox="0 0 173 46" fill="none" xmlns="http://www.w3.org/2000/svg">
<path d="M145.722 37.7764C145.052 37.7764 144.396 37.9765 143.839 38.3515C143.281 38.7265 142.847 39.2595 142.59 39.8831C142.333 40.5067 142.266 41.1929 142.397 41.8549C142.528 42.5169 142.851 43.125 143.325 43.6023C143.799 44.0795 144.403 44.4046 145.061 44.5362C145.718 44.6679 146.4 44.6003 147.02 44.342C147.639 44.0837 148.168 43.6463 148.541 43.0851C148.913 42.5239 149.112 41.8641 149.112 41.1891C149.112 40.284 148.755 39.4159 148.119 38.7759C147.484 38.1359 146.621 37.7764 145.722 37.7764Z" fill="white"/>
<path d="M157.429 37.7764C156.759 37.7764 156.103 37.9765 155.546 38.3515C154.988 38.7265 154.554 39.2595 154.297 39.8831C154.041 40.5067 153.973 41.1929 154.104 41.8549C154.235 42.5169 154.558 43.125 155.032 43.6023C155.506 44.0795 156.11 44.4046 156.768 44.5362C157.425 44.6679 158.107 44.6003 158.727 44.342C159.346 44.0837 159.875 43.6463 160.248 43.0851C160.62 42.5239 160.819 41.8641 160.819 41.1891C160.819 40.284 160.462 39.4159 159.826 38.7759C159.191 38.1359 158.328 37.7764 157.429 37.7764Z" fill="white"/>
<path d="M169.156 37.7764C168.485 37.7764 167.83 37.9765 167.272 38.3515C166.715 38.7265 166.28 39.2595 166.024 39.8831C165.767 40.5067 165.7 41.1929 165.831 41.8549C165.962 42.5169 166.284 43.125 166.759 43.6023C167.233 44.0795 167.837 44.4046 168.494 44.5362C169.152 44.6679 169.834 44.6003 170.453 44.342C171.073 44.0837 171.602 43.6463 171.975 43.0851C172.347 42.5239 172.546 41.8641 172.546 41.1891C172.546 40.7409 172.458 40.2971 172.288 39.8831C172.117 39.469 171.868 39.0928 171.553 38.7759C171.238 38.459 170.864 38.2076 170.453 38.0361C170.042 37.8646 169.601 37.7764 169.156 37.7764Z" fill="white"/>
<path d="M60.5413 14.7027C58.6633 15.7188 57.0318 17.1406 55.7637 18.8661C54.4957 20.5916 53.6225 22.5781 53.2067 24.6833C53.2067 25.6706 53.2067 26.8297 54.2302 27.0443C56.5968 27.4951 56.6608 28.5682 55.4881 30.3068C54.3154 32.0454 53.6545 33.9556 51.3517 33.3332C49.049 32.7107 49.2196 30.7575 49.71 29.0404C50.307 26.2931 51.1385 23.5887 51.6289 20.8198C51.9398 19.4175 51.9678 17.9666 51.7113 16.5531C51.4547 15.1397 50.9188 13.7925 50.1354 12.5914C49.3519 11.3904 48.3368 10.3599 47.1503 9.5612C45.9639 8.76248 44.6301 8.21173 43.2282 7.94162C41.0961 7.42649 38.4096 6.8255 37.0237 9.12212C35.6378 11.4187 37.7913 13.0929 39.3051 14.531C42.2901 17.4071 44.6355 20.5408 44.3156 24.3614C44.1081 28.734 43.2084 33.0452 41.6504 37.1323C41.3802 37.8899 41.2794 38.6983 41.3551 39.4997C41.4309 40.3012 41.6813 41.0759 42.0885 41.7687C42.4958 42.4616 43.0498 43.0554 43.7112 43.508C44.3725 43.9606 45.125 44.2607 45.9148 44.387C46.9548 44.6701 48.0401 44.7438 49.1084 44.6038C50.1768 44.4638 51.2072 44.113 52.1406 43.5714C56.1992 40.7992 59.5994 37.1589 62.0984 32.9106C64.5973 28.6622 66.1333 23.9106 66.5966 18.9954C67.1084 15.3037 64.0167 13.3934 60.5413 14.7027Z" fill="white"/>
<path d="M35.0408 16.2485C30.4993 14.6816 26.7254 16.2485 23.5058 19.6398C19.968 23.3629 17.951 28.2896 17.8556 33.4409C17.6424 37.9054 20.3289 42.842 23.7617 44.044C25.7239 44.7395 27.8455 44.8418 29.8648 44.3383C31.8841 43.8349 33.713 42.7477 35.1261 41.2108C38.6885 37.6923 40.7917 32.9439 41.0108 27.9247C41.1174 22.0008 38.8787 17.5578 35.0408 16.2485ZM32.9086 31.638C31.9881 32.3969 30.8362 32.8137 29.6464 32.8185C28.93 32.8678 28.2104 32.8026 27.5143 32.6253C26.9473 32.5021 26.4295 32.2118 26.027 31.7913C25.6245 31.3709 25.3555 30.8393 25.2542 30.2643C25.1733 29.6846 25.2588 29.0936 25.5006 28.5612C25.7423 28.0288 26.1303 27.5771 26.6188 27.2594C27.9922 26.6242 29.5323 26.4511 31.011 26.7657C31.669 26.8461 32.2904 27.1142 32.802 27.5384C33.0749 27.8032 33.2928 28.12 33.4429 28.4703C33.593 28.8207 33.6723 29.1977 33.6763 29.5792C33.6803 29.9607 33.6088 30.3393 33.466 30.6927C33.3232 31.0462 33.112 31.3675 32.8447 31.638H32.9086Z" fill="white"/>
<path d="M75.4457 31.5519C76.0201 31.4983 76.5983 31.4983 77.1727 31.5519C77.767 31.5241 78.3585 31.4523 78.9424 31.3373C80.2537 31.0443 81.5221 30.5826 82.7163 29.9636C84.0311 29.3039 85.2158 28.4094 86.213 27.3235C87.2731 26.1481 88.0984 24.7781 88.6437 23.2884C89.0844 22.4116 89.2785 21.4302 89.2049 20.4503C89.1314 19.4705 88.7931 18.5296 88.2265 17.7294C87.66 16.9292 86.8869 16.3002 85.9908 15.9105C85.0947 15.5208 84.1098 15.3853 83.1427 15.5185C74.3796 15.9478 65.4672 25.5206 65.5951 34.3851C65.5951 40.8242 69.6036 45.6106 74.9126 45.117C77.7828 44.8532 80.5316 43.8257 82.8771 42.1397C85.2226 40.4537 87.0804 38.1699 88.2599 35.5227C88.9635 34.0846 89.5605 32.3461 87.8548 31.2299C86.1491 30.1138 84.7632 30.9938 83.5905 32.11C82.2627 33.4335 80.6505 34.4322 78.8784 35.029C77.194 35.5227 75.0832 35.8661 74.6141 33.4836C74.4869 33.0859 74.4869 32.658 74.6141 32.2602C74.6786 32.079 74.7894 31.918 74.9354 31.7937C75.0814 31.6693 75.2574 31.5859 75.4457 31.5519ZM74.0598 28.0533C74.1433 27.0428 74.594 26.0987 75.3257 25.4018C76.0574 24.7048 77.0186 24.3039 78.0256 24.2757C79.2409 24.0825 80.6268 24.2757 80.6055 25.9499C80.6265 26.207 80.6265 26.4654 80.6055 26.7226C80.4233 27.416 80.0324 28.0358 79.4866 28.4969C78.9407 28.9581 78.2666 29.2379 77.5565 29.2982L76.9168 29.427C75.6162 29.7275 73.9745 29.5987 74.0598 28.0533Z" fill="white"/>
<path d="M12.3976 32.4105C10.9477 32.9042 10.5426 31.7881 10.6279 30.5646C10.7215 29.3658 10.8996 28.1751 11.1609 27.0016C12.6747 19.8328 14.2738 12.6639 15.4252 6.97602C15.5745 1.28814 14.2952 -0.579207 11.4594 0.150559C9.10393 0.815776 6.91242 1.96887 5.02523 3.536C3.13804 5.10312 1.59678 7.04974 0.500133 9.25117C-0.37405 10.8824 -0.203478 12.5566 2.01396 12.8785C6.27827 13.501 6.44884 16.2054 5.87316 19.6611C4.51348 25.3937 2.71716 31.0123 0.500133 36.4671C0.0651348 37.4665 -0.090379 38.5665 0.0503874 39.6483C0.191154 40.7301 0.62285 41.7527 1.29885 42.6055C1.97486 43.4584 2.86947 44.1091 3.88608 44.4874C4.90269 44.8657 6.00265 44.9573 7.06717 44.7521C9.12849 44.1847 10.9966 43.061 12.4697 41.5024C13.9427 39.9439 14.9647 38.0098 15.4252 35.9091C15.6384 33.8915 16.2994 31.1227 12.3976 32.4105Z" fill="white"/>
<path d="M114.954 21.6787C115.423 21.0177 115.72 20.2488 115.816 19.4426C115.913 18.6363 115.807 17.8184 115.509 17.064C115.204 16.532 114.722 16.1259 114.148 15.9176C113.575 15.7094 112.946 15.7125 112.374 15.9264C110.472 16.2941 108.678 17.0918 107.127 18.2593C105.576 19.4267 104.308 20.9335 103.419 22.666C103.241 22.9124 103.114 23.1923 103.045 23.4891C102.977 23.786 102.968 24.0937 103.019 24.394C103.071 24.6943 103.182 24.981 103.346 25.2373C103.51 25.4935 103.724 25.714 103.974 25.8856L104.635 26.3363C105.049 26.5598 105.412 26.8675 105.701 27.2397C105.991 27.612 106.201 28.0408 106.317 28.4989C106.433 28.957 106.453 29.4344 106.377 29.9008C106.3 30.3673 106.128 30.8126 105.871 31.2086C105.146 32.9472 104.23 34.5784 103.441 36.274C100.989 41.5112 103.142 44.9668 108.878 45.0312C113.142 45.0312 114.528 43.0566 112.652 39.4077C111.664 37.5018 111.342 35.3174 111.735 33.2047C112.173 29.2111 113.261 25.3171 114.954 21.6787Z" fill="white"/>
<path d="M129.24 15.6901C128.637 15.6515 128.031 15.6515 127.428 15.6901C125.2 15.8925 123.087 16.7763 121.373 18.2229C119.95 19.5304 119.099 21.3514 119.006 23.2883C118.864 25.0257 119.258 26.7649 120.136 28.2679C121.343 29.7126 123.02 30.6786 124.869 30.9938H125.189C125.901 31.1741 126.555 31.5363 127.087 32.0455C127.388 32.369 127.595 32.7701 127.684 33.2045C127.813 33.5579 127.813 33.9458 127.684 34.2992C127.488 34.5557 127.231 34.7575 126.936 34.8853C126.641 35.0131 126.319 35.0625 125.999 35.0289C125.341 35.0601 124.686 34.9276 124.091 34.6431C123.496 34.3586 122.98 33.9308 122.588 33.3977C122.076 32.6679 121.842 31.6806 121.095 31.2513C120.47 30.9287 119.745 30.8595 119.07 31.0581C118.168 31.1868 117.321 31.5724 116.63 32.1695C115.939 32.7665 115.431 33.5502 115.168 34.4279C115.036 35.1432 115.08 35.88 115.296 36.5743C115.509 37.2926 115.817 37.9786 116.213 38.6134C117.911 41.1899 120.434 43.1038 123.363 44.037C126.291 44.9702 129.449 44.8665 132.311 43.7432C133.791 43.292 135.088 42.3733 136.01 41.1229C136.931 39.8725 137.429 38.3568 137.429 36.7997C137.429 35.2426 136.931 33.7268 136.01 32.4764C135.088 31.226 133.791 30.3074 132.311 29.8562C130.989 29.2767 129.56 28.8903 128.302 28.182C128.1 28.0576 127.926 27.8934 127.789 27.6991C127.652 27.5049 127.556 27.2847 127.506 27.052C127.456 26.8192 127.454 26.5787 127.499 26.345C127.544 26.1112 127.636 25.8892 127.769 25.6922C127.999 25.3566 128.345 25.1199 128.74 25.0285C129.135 24.9371 129.549 24.9978 129.901 25.1986C130.753 25.5527 131.528 26.0703 132.183 26.7225C132.517 27.1447 132.933 27.4942 133.405 27.75C133.877 28.0058 134.396 28.1625 134.93 28.2106C135.464 28.2588 136.003 28.1974 136.513 28.0301C137.022 27.8629 137.493 27.5933 137.897 27.2376C138.835 26.5725 139.491 25.5774 139.736 24.4487C139.981 23.3201 139.796 22.1401 139.219 21.1419C137.364 17.2355 134.059 15.6043 129.24 15.6901Z" fill="white"/>
<path d="M110.879 13.63C111.693 12.8816 112.571 12.2065 113.502 11.6124C115.219 10.6324 116.738 9.33644 117.979 7.79186C118.353 7.29619 118.615 6.72466 118.748 6.11684C118.88 5.50903 118.88 4.87948 118.747 4.27181C118.636 3.8931 118.45 3.54101 118.2 3.23682C117.95 2.93264 117.641 2.6827 117.292 2.50211C116.943 2.32153 116.562 2.21406 116.17 2.18621C115.779 2.15836 115.386 2.2107 115.016 2.34008C114.238 2.70184 113.52 3.17939 112.884 3.75668L112.564 3.97132C112.455 3.82717 112.356 3.67666 112.265 3.52058C112.058 3.05255 111.709 2.66196 111.269 2.40394C110.829 2.14592 110.32 2.03348 109.813 2.08251C108.74 2.30536 107.78 2.90446 107.105 3.77314C106.429 4.64181 106.082 5.72365 106.125 6.82599C106.338 8.84358 108.086 10.1743 109.323 11.5695C109.965 12.1525 110.493 12.8514 110.879 13.63Z" fill="white"/>
</svg>
