<svg width="36" height="41" viewBox="0 0 36 41" fill="none" xmlns="http://www.w3.org/2000/svg">
<path fill-rule="evenodd" clip-rule="evenodd" d="M24.2843 1.71041C24.8374 1.76741 25.4459 1.57742 25.9806 1.78641C26.0175 3.9523 26.7919 6.0422 28.0825 7.73312C26.0728 6.40318 24.7637 4.10429 24.2843 1.71041ZM33.2083 10.906C33.8352 11.077 34.5358 10.982 35.1443 11.1909C35.1627 13.2618 35.1443 15.3517 35.1443 17.4226C35.0521 17.5366 35.2365 17.7836 35.0705 17.8596C31.8254 17.9166 28.6541 16.7577 25.999 14.8958C25.9806 19.7215 25.999 24.5473 25.999 29.3921C25.8331 31.9949 24.8374 34.5598 23.1964 36.5547C21.0023 39.2526 17.6466 40.9815 14.1987 40.9815C10.8245 41.1335 7.43194 39.6136 5.16406 37.0487C9.33105 40.0885 15.4894 40.1455 19.4904 36.7827C22.1455 34.5978 23.8233 31.254 24.1921 27.7961C24.2474 22.9514 24.1921 18.1066 24.2105 13.2618C26.8287 15.1048 29.9816 16.2067 33.153 16.1307C33.2636 14.4208 33.1898 12.6539 33.2083 10.906ZM13.7193 16.1117C13.7193 17.8976 13.7377 19.6645 13.7193 21.4504C11.4699 20.8045 8.88854 21.8304 7.50569 23.7303C6.04909 25.8772 6.3441 29.0881 8.22477 30.874C8.59353 31.235 8.99917 31.539 9.42324 31.7859C8.92542 30.95 8.53822 30 8.48291 29.0121C8.37228 27.4922 8.88854 25.9152 9.90263 24.7943C11.2855 23.1604 13.5902 22.5144 15.5815 23.1604C15.5815 20.8805 15.5815 18.5816 15.5815 16.3017C15.01 16.0357 14.3278 16.1877 13.7193 16.1117Z" fill="#F72E56"/>
<path fill-rule="evenodd" clip-rule="evenodd" d="M17.5728 0C19.7485 0 21.9426 0 24.1183 0C24.0814 0.569972 24.1736 1.13994 24.2289 1.69092C22.6432 1.70992 21.0391 1.63392 19.4719 1.72892C19.3982 10.6205 19.4535 19.531 19.435 28.4416C19.4535 30.5885 18.2734 32.7354 16.3559 33.6664C14.088 34.8253 11.0457 34.1033 9.5707 31.9564C10.6954 32.4314 11.9492 32.7354 13.1477 32.4124C15.4524 31.9564 17.3331 29.7905 17.499 27.3587C17.5175 21.241 17.4806 15.1423 17.5175 9.02456C17.6281 6.02271 17.5359 3.02085 17.5728 0ZM28.4143 8.01761C29.8709 8.87257 31.4935 9.38554 33.1714 9.42354C33.3004 9.82252 33.1898 10.4305 33.2267 10.9055C31.3644 10.5065 29.6681 9.46154 28.4143 8.01761ZM1.78985 20.367C0.185747 23.0079 -0.367393 26.2757 0.241061 29.3346C0.81264 32.3174 2.50894 35.0723 4.88744 36.8582C3.09895 34.6543 1.99267 31.8424 1.91892 28.9546C1.78985 25.3448 3.30177 21.7349 5.88309 19.3031C8.0219 17.3272 10.8614 16.2822 13.7192 16.1302C13.6824 15.6172 13.8114 15.0093 13.6455 14.5533C9.03599 13.8313 4.16836 16.2442 1.78985 20.367Z" fill="#2BF1EB"/>
<path fill-rule="evenodd" clip-rule="evenodd" d="M19.468 1.74791C21.0352 1.67192 22.6393 1.72891 24.225 1.70991H24.2803C24.7413 4.1038 26.0504 6.40269 28.0785 7.73262C28.1892 7.80862 28.2998 7.92261 28.392 8.01761C29.6458 9.46154 31.3605 10.5065 33.2043 10.9055C33.1859 12.6534 33.2596 14.4203 33.1674 16.1302C30.0145 16.2062 26.8432 15.1043 24.225 13.2614C24.1881 18.1061 24.2434 22.9509 24.2066 27.7956C23.8378 31.2535 22.1415 34.5973 19.5049 36.7822C15.5038 40.145 9.32707 40.088 5.17852 37.0482C5.08633 36.9722 4.93883 36.9532 4.90195 36.8392C3.11346 34.6353 2.00718 31.8234 1.93343 28.9356C1.80436 25.3258 3.31628 21.7159 5.8976 19.2841C8.03641 17.3082 10.8759 16.2632 13.7338 16.1112C13.7338 17.8971 13.7522 19.664 13.7338 21.45C11.4843 20.804 8.903 21.8299 7.52015 23.7298C6.06355 25.8767 6.35855 29.0876 8.23923 30.8735C8.60799 31.2345 9.01363 31.5385 9.4377 31.7854C9.51145 31.8234 9.56677 31.8804 9.60364 31.9564C11.0602 34.1223 14.121 34.8253 16.3888 33.6664C18.3064 32.7354 19.468 30.5885 19.468 28.4416C19.468 19.55 19.3942 10.6205 19.468 1.74791Z" fill="white"/>
</svg>
