<svg width="37" height="38" viewBox="0 0 37 38" fill="none" xmlns="http://www.w3.org/2000/svg">
<path fill-rule="evenodd" clip-rule="evenodd" d="M31.4712 5.81176C28.0376 2.36073 23.4595 0.464844 18.5844 0.464844C8.54583 0.464844 0.3682 8.64248 0.359463 18.681C0.359463 21.8962 1.19819 25.024 2.78829 27.7935L0.210938 37.238L9.87383 34.7043C12.5385 36.1546 15.5353 36.9235 18.5844 36.9235H18.5931C28.6317 36.9235 36.8093 28.7458 36.8181 18.6985C36.8093 13.8321 34.9135 9.25405 31.4712 5.81176ZM18.5844 33.8394C15.8585 33.8394 13.1938 33.1055 10.8698 31.7251L10.3194 31.3931L4.58807 32.8958L6.11701 27.3043L5.7588 26.7276C4.2386 24.3163 3.44355 21.5292 3.44355 18.6723C3.44355 10.3374 10.2408 3.54019 18.5931 3.54019C22.6383 3.54019 26.4388 5.12155 29.3044 7.97848C32.1614 10.8441 33.734 14.6447 33.734 18.6898C33.7253 27.0509 26.928 33.8394 18.5844 33.8394ZM26.8931 22.499C26.4388 22.2719 24.2022 21.171 23.7828 21.0138C23.3634 20.8652 23.0576 20.7866 22.7606 21.2409C22.4548 21.6952 21.5811 22.7262 21.319 23.0232C21.0569 23.329 20.7861 23.364 20.3318 23.1368C19.8774 22.9097 18.4097 22.4291 16.671 20.874C15.3168 19.6683 14.4082 18.1743 14.1374 17.72C13.8753 17.2657 14.1112 17.0211 14.3383 16.7939C14.5393 16.593 14.7926 16.261 15.0198 15.9989C15.247 15.7367 15.3256 15.5445 15.4741 15.2388C15.6226 14.933 15.5527 14.6709 15.4392 14.4437C15.3256 14.2165 14.417 11.9712 14.0325 11.0626C13.6656 10.1714 13.2899 10.2937 13.0103 10.285C12.7482 10.2675 12.4424 10.2675 12.1367 10.2675C11.8309 10.2675 11.3416 10.3811 10.9222 10.8354C10.5029 11.2897 9.33214 12.3906 9.33214 14.6359C9.33214 16.8813 10.9659 19.0393 11.1931 19.345C11.4202 19.6508 14.3995 24.2464 18.9688 26.2209C20.0522 26.6927 20.8997 26.9723 21.5636 27.1819C22.6557 27.5314 23.643 27.479 24.4293 27.3654C25.303 27.2344 27.1202 26.2646 27.5047 25.1987C27.8803 24.1328 27.8803 23.2242 27.7668 23.032C27.6532 22.8398 27.3474 22.7262 26.8931 22.499Z" fill="white"/>
</svg>
