<svg width="25" height="26" viewBox="0 0 25 26" fill="none" xmlns="http://www.w3.org/2000/svg">
<path fill-rule="evenodd" clip-rule="evenodd" d="M21.3484 3.65155C19.0036 1.29475 15.8771 0 12.5477 0C5.69212 0 0.107399 5.58473 0.101432 12.4403C0.101432 14.636 0.674224 16.7721 1.76014 18.6635L0 25.1134L6.59905 23.3831C8.41885 24.3735 10.4654 24.8986 12.5477 24.8986H12.5537C19.4093 24.8986 24.994 19.3138 25 12.4523C24.994 9.12888 23.6993 6.00239 21.3484 3.65155ZM12.5477 22.7924C10.6862 22.7924 8.86635 22.2912 7.27924 21.3484L6.90334 21.1217L2.98926 22.148L4.03341 18.3294L3.78878 17.9356C2.7506 16.2888 2.20764 14.3854 2.20764 12.4344C2.20764 6.74224 6.84964 2.10024 12.5537 2.10024C15.3162 2.10024 17.9117 3.18019 19.8687 5.13127C21.8198 7.08831 22.8938 9.68377 22.8938 12.4463C22.8878 18.1563 18.2458 22.7924 12.5477 22.7924ZM18.222 15.0477C17.9117 14.8926 16.3842 14.1408 16.0979 14.0334C15.8115 13.932 15.6026 13.8783 15.3998 14.1885C15.1909 14.4988 14.5943 15.2029 14.4153 15.4057C14.2363 15.6146 14.0513 15.6384 13.7411 15.4833C13.4308 15.3282 12.4284 15 11.241 13.9379C10.3162 13.1146 9.6957 12.0943 9.51074 11.784C9.33174 11.4737 9.49284 11.3067 9.64797 11.1516C9.7852 11.0143 9.95823 10.7876 10.1134 10.6086C10.2685 10.4296 10.3222 10.2983 10.4236 10.0895C10.5251 9.88067 10.4773 9.70167 10.3998 9.54654C10.3222 9.39141 9.70167 7.858 9.43914 7.23747C9.18854 6.62888 8.93198 6.71241 8.74105 6.70644C8.56205 6.69451 8.35322 6.69451 8.14439 6.69451C7.93556 6.69451 7.60143 6.77208 7.31504 7.08234C7.02864 7.3926 6.22912 8.14439 6.22912 9.6778C6.22912 11.2112 7.34487 12.685 7.5 12.8938C7.65513 13.1026 9.68974 16.2411 12.8103 17.5895C13.5501 17.9117 14.1289 18.1026 14.5823 18.2458C15.3282 18.4845 16.0024 18.4487 16.5394 18.3711C17.136 18.2816 18.3771 17.6193 18.6396 16.8914C18.8962 16.1635 18.8962 15.543 18.8186 15.4117C18.741 15.2804 18.5322 15.2029 18.222 15.0477Z" fill="black"/>
</svg>
