<svg width="24" height="28" viewBox="0 0 24 28" fill="none" xmlns="http://www.w3.org/2000/svg">
<g clip-path="url(#clip0_1012_40)">
<path fill-rule="evenodd" clip-rule="evenodd" d="M16.5851 1.16786C16.9628 1.20678 17.3783 1.07703 17.7435 1.21976C17.7687 2.69891 18.2975 4.12615 19.179 5.28093C17.8065 4.37268 16.9124 2.80271 16.5851 1.16786ZM22.6795 7.44775C23.1076 7.56452 23.5861 7.49965 24.0016 7.64237C24.0142 9.05665 24.0016 10.4839 24.0016 11.8982C23.9387 11.976 24.0646 12.1447 23.9513 12.1966C21.7351 12.2355 19.5693 11.444 17.7561 10.1725C17.7435 13.4681 17.7561 16.7638 17.7561 20.0724C17.6428 21.85 16.9628 23.6016 15.8421 24.964C14.3437 26.8064 12.052 27.9871 9.69733 27.9871C7.39303 28.0909 5.07614 27.0529 3.52734 25.3013C6.37309 27.3773 10.5788 27.4162 13.3112 25.1197C15.1244 23.6275 16.2703 21.344 16.5221 18.9825C16.5599 15.6739 16.5221 12.3653 16.5347 9.05665C18.3227 10.3152 20.4759 11.0678 22.6417 11.0159C22.7173 9.84812 22.6669 8.64145 22.6795 7.44775ZM9.36995 11.0029C9.36995 12.2225 9.38254 13.4292 9.36995 14.6489C7.83375 14.2077 6.07089 14.9084 5.1265 16.2059C4.13175 17.672 4.33322 19.8648 5.61759 21.0844C5.86942 21.331 6.14644 21.5386 6.43605 21.7072C6.09607 21.1364 5.83165 20.4876 5.79387 19.8129C5.71832 18.7749 6.07089 17.698 6.76344 16.9325C7.70783 15.8166 9.2818 15.3755 10.6417 15.8166C10.6417 14.2596 10.6417 12.6896 10.6417 11.1326C10.2514 10.951 9.78548 11.0548 9.36995 11.0029Z" fill="#F72E56"/>
<path fill-rule="evenodd" clip-rule="evenodd" d="M12.0009 0C13.4868 0 14.9852 0 16.471 0C16.4458 0.389249 16.5088 0.778498 16.5466 1.15477C15.4637 1.16775 14.3682 1.11585 13.2979 1.18072C13.2475 7.25301 13.2853 13.3383 13.2727 19.4235C13.2853 20.8897 12.4794 22.3559 11.1699 22.9917C9.62108 23.7831 7.54343 23.2901 6.53609 21.8239C7.30419 22.1483 8.16043 22.3559 8.9789 22.1353C10.5529 21.8239 11.8372 20.3448 11.9506 18.684C11.9632 14.506 11.938 10.3411 11.9632 6.16311C12.0387 4.11307 11.9757 2.06302 12.0009 0ZM19.4049 5.47544C20.3997 6.05931 21.5077 6.40964 22.6536 6.43559C22.7417 6.70806 22.6662 7.12326 22.6914 7.44764C21.4196 7.17516 20.2612 6.46154 19.4049 5.47544ZM1.22234 13.9092C0.126852 15.7127 -0.250903 17.9444 0.164627 20.0334C0.554973 22.0704 1.71342 23.9518 3.33776 25.1714C2.11636 23.6664 1.36085 21.7461 1.31048 19.7739C1.22234 17.3086 2.25487 14.8434 4.01772 13.1826C5.47837 11.8332 7.41751 11.1196 9.36924 11.0158C9.34406 10.6654 9.4322 10.2502 9.31888 9.93883C6.17092 9.44578 2.84668 11.0936 1.22234 13.9092Z" fill="#2BF1EB"/>
<path fill-rule="evenodd" clip-rule="evenodd" d="M13.2964 1.19393C14.3667 1.14203 15.4622 1.18096 16.5451 1.16798H16.5829C16.8977 2.80283 17.7917 4.3728 19.1768 5.28105C19.2524 5.33295 19.3279 5.4108 19.3909 5.47568C20.2471 6.46177 21.4182 7.1754 22.6773 7.44787C22.6648 8.64157 22.7151 9.84824 22.6522 11.016C20.499 11.0679 18.3332 10.3153 16.5451 9.05677C16.5199 12.3654 16.5577 15.674 16.5325 18.9826C16.2807 21.3441 15.1223 23.6277 13.3216 25.1198C10.5892 27.4164 6.37095 27.3774 3.53779 25.3014C3.47483 25.2495 3.3741 25.2366 3.34891 25.1587C2.12751 23.6536 1.372 21.7333 1.32163 19.7611C1.23349 17.2959 2.26602 14.8306 4.02887 13.1698C5.48952 11.8204 7.42866 11.1068 9.38039 11.003C9.38039 12.2227 9.39298 13.4293 9.38039 14.649C7.84419 14.2078 6.08134 14.9085 5.13695 16.206C4.1422 17.6722 4.34367 19.8649 5.62803 21.0846C5.87987 21.3311 6.15689 21.5387 6.4465 21.7074C6.49687 21.7333 6.53464 21.7722 6.55982 21.8241C7.55458 23.3033 9.64482 23.7834 11.1936 22.9919C12.5032 22.3561 13.2964 20.8899 13.2964 19.4238C13.2964 13.3515 13.2461 7.25325 13.2964 1.19393Z" fill="black"/>
</g>
<defs>
<clipPath id="clip0_1012_40">
<rect width="24" height="28" fill="white"/>
</clipPath>
</defs>
</svg>
