<svg width="194" height="51" viewBox="0 0 194 51" fill="none" xmlns="http://www.w3.org/2000/svg">
<path d="M163.383 42.355C162.631 42.355 161.896 42.5794 161.271 42.9998C160.646 43.4203 160.159 44.0179 159.871 44.7171C159.584 45.4162 159.508 46.1856 159.655 46.9278C159.802 47.6701 160.164 48.3519 160.695 48.887C161.227 49.4221 161.904 49.7865 162.641 49.9342C163.379 50.0818 164.143 50.006 164.838 49.7164C165.532 49.4268 166.126 48.9364 166.543 48.3072C166.961 47.6779 167.184 46.9381 167.184 46.1813C167.184 45.1665 166.784 44.1933 166.071 43.4757C165.358 42.7581 164.391 42.355 163.383 42.355Z" fill="black"/>
<path d="M176.508 42.355C175.756 42.355 175.021 42.5794 174.396 42.9998C173.771 43.4203 173.284 44.0179 172.996 44.7171C172.709 45.4162 172.633 46.1856 172.78 46.9278C172.927 47.6701 173.289 48.3519 173.82 48.887C174.352 49.4221 175.029 49.7865 175.767 49.9342C176.504 50.0818 177.268 50.006 177.963 49.7164C178.657 49.4268 179.251 48.9364 179.668 48.3072C180.086 47.6779 180.309 46.9381 180.309 46.1813C180.309 45.1665 179.909 44.1933 179.196 43.4757C178.483 42.7581 177.516 42.355 176.508 42.355Z" fill="black"/>
<path d="M189.656 42.355C188.905 42.355 188.17 42.5794 187.545 42.9998C186.92 43.4203 186.433 44.0179 186.145 44.7171C185.857 45.4162 185.782 46.1856 185.928 46.9278C186.075 47.6701 186.437 48.3519 186.969 48.887C187.5 49.4221 188.178 49.7865 188.915 49.9342C189.652 50.0818 190.417 50.006 191.111 49.7164C191.806 49.4268 192.399 48.9364 192.817 48.3072C193.235 47.6779 193.458 46.9381 193.458 46.1813C193.458 45.6789 193.359 45.1813 193.168 44.7171C192.977 44.2528 192.697 43.831 192.344 43.4757C191.991 43.1204 191.572 42.8385 191.111 42.6462C190.65 42.454 190.156 42.355 189.656 42.355Z" fill="black"/>
<path d="M67.8794 16.485C65.7737 17.6243 63.9445 19.2184 62.5227 21.153C61.101 23.0877 60.1219 25.315 59.6558 27.6753C59.6558 28.7823 59.6558 30.0818 60.8033 30.3225C63.4568 30.8278 63.5285 32.0311 62.2137 33.9804C60.8989 35.9296 60.1578 38.0714 57.576 37.3735C54.9942 36.6757 55.1854 34.4857 55.7353 32.5605C56.4046 29.4802 57.3369 26.448 57.8868 23.3436C58.2354 21.7712 58.2668 20.1445 57.9791 18.5597C57.6915 16.9749 57.0906 15.4645 56.2122 14.1178C55.3338 12.7712 54.1957 11.6159 52.8654 10.7203C51.5351 9.82481 50.0397 9.20731 48.4679 8.90446C46.0773 8.32689 43.0652 7.65307 41.5113 10.228C39.9575 12.803 42.3719 14.6801 44.0692 16.2925C47.4161 19.5172 50.0457 23.0307 49.6871 27.3143C49.4544 32.2169 48.4457 37.0507 46.6989 41.6331C46.3959 42.4826 46.2829 43.3889 46.3678 44.2875C46.4527 45.1861 46.7334 46.0547 47.19 46.8315C47.6466 47.6083 48.2678 48.2742 49.0094 48.7816C49.7509 49.289 50.5945 49.6255 51.48 49.7671C52.6461 50.0845 53.863 50.1671 55.0608 50.0102C56.2587 49.8533 57.414 49.4599 58.4605 48.8526C63.011 45.7445 66.8233 41.663 69.6252 36.8997C72.427 32.1364 74.1492 26.809 74.6686 21.298C75.2424 17.1588 71.776 15.017 67.8794 16.485Z" fill="black"/>
<path d="M39.2892 18.2179C34.1972 16.4612 29.9659 18.2179 26.3561 22.0202C22.3895 26.1946 20.1281 31.7184 20.0211 37.4941C19.7821 42.4997 22.7942 48.0346 26.643 49.3823C28.8431 50.1621 31.2218 50.2768 33.4858 49.7123C35.7499 49.1479 37.8005 47.9289 39.3848 46.2057C43.379 42.2608 45.7371 36.9368 45.9828 31.3094C46.1023 24.6674 43.5922 19.6859 39.2892 18.2179ZM36.8986 35.4726C35.8665 36.3235 34.575 36.7909 33.241 36.7962C32.4378 36.8515 31.6309 36.7784 30.8504 36.5796C30.2147 36.4415 29.6342 36.116 29.1829 35.6446C28.7316 35.1731 28.43 34.5771 28.3164 33.9325C28.2257 33.2825 28.3216 32.6199 28.5926 32.023C28.8637 31.426 29.2987 30.9196 29.8464 30.5633C31.3863 29.8512 33.113 29.6571 34.771 30.0098C35.5087 30.1 36.2055 30.4005 36.7791 30.8762C37.0851 31.1731 37.3293 31.5283 37.4976 31.9211C37.6659 32.3139 37.7549 32.7365 37.7593 33.1643C37.7638 33.5921 37.6836 34.0165 37.5235 34.4128C37.3634 34.8091 37.1266 35.1694 36.8269 35.4726H36.8986Z" fill="black"/>
<path d="M84.589 35.3762C85.233 35.3162 85.8812 35.3162 86.5253 35.3762C87.1917 35.345 87.8549 35.2646 88.5095 35.1356C89.9798 34.8071 91.4019 34.2895 92.7408 33.5954C94.2149 32.8558 95.5433 31.8529 96.6614 30.6354C97.8499 29.3174 98.7752 27.7814 99.3866 26.1111C99.8807 25.1281 100.098 24.0277 100.016 22.9291C99.9334 21.8305 99.5541 20.7755 98.9189 19.8784C98.2837 18.9812 97.4169 18.276 96.4122 17.8391C95.4075 17.4021 94.3033 17.2501 93.2189 17.3995C83.3937 17.8808 73.4011 28.6139 73.5445 38.5528C73.5445 45.7724 78.0388 51.1389 83.9913 50.5854C87.2094 50.2897 90.2913 49.1376 92.9211 47.2472C95.5509 45.3569 97.6339 42.7964 98.9563 39.8283C99.7452 38.2159 100.415 36.2666 98.5021 35.0152C96.5897 33.7639 95.0358 34.7505 93.721 36.0019C92.2322 37.4859 90.4247 38.6057 88.4378 39.2748C86.5492 39.8283 84.1826 40.2133 83.6566 37.5421C83.514 37.0961 83.514 36.6163 83.6566 36.1704C83.7289 35.9672 83.8532 35.7867 84.0169 35.6473C84.1806 35.5079 84.3779 35.4144 84.589 35.3762ZM83.0351 31.4536C83.1288 30.3206 83.6341 29.2621 84.4545 28.4807C85.2748 27.6993 86.3526 27.2497 87.4816 27.2181C88.8442 27.0015 90.3981 27.2181 90.3742 29.0952C90.3978 29.3835 90.3978 29.6733 90.3742 29.9616C90.1698 30.7391 89.7317 31.434 89.1196 31.951C88.5076 32.468 87.7517 32.7818 86.9556 32.8494L86.2385 32.9938C84.7802 33.3307 82.9395 33.1863 83.0351 31.4536Z" fill="black"/>
<path d="M13.9002 36.3387C12.2746 36.8922 11.8204 35.6409 11.916 34.2691C12.021 32.925 12.2207 31.59 12.5136 30.2743C14.2109 22.2366 16.0039 14.1988 17.2948 7.82153C17.4621 1.44426 16.0278 -0.649409 12.8483 0.168807C10.2073 0.91465 7.75022 2.2075 5.6343 3.96457C3.51838 5.72164 1.79031 7.90419 0.56075 10.3724C-0.419386 12.2014 -0.22814 14.0785 2.25806 14.4394C7.03921 15.1373 7.23046 18.1695 6.585 22.044C5.06053 28.4714 3.04649 34.7711 0.56075 40.8871C0.0730293 42.0075 -0.101333 43.2408 0.0564945 44.4538C0.214322 45.6667 0.698342 46.8132 1.45628 47.7695C2.21421 48.7257 3.21726 49.4553 4.35708 49.8794C5.49691 50.3036 6.73019 50.4062 7.92373 50.1762C10.2349 49.54 12.3294 48.2801 13.981 46.5327C15.6326 44.7852 16.7785 42.6167 17.2948 40.2614C17.5338 37.9992 18.2749 34.8948 13.9002 36.3387Z" fill="black"/>
<path d="M128.885 24.3063C129.411 23.5652 129.743 22.7031 129.852 21.7991C129.96 20.8951 129.841 19.9781 129.507 19.1323C129.165 18.5358 128.625 18.0804 127.981 17.8469C127.338 17.6134 126.633 17.6169 125.992 17.8568C123.86 18.2691 121.848 19.1634 120.109 20.4724C118.369 21.7813 116.948 23.4708 115.952 25.4133C115.752 25.6895 115.609 26.0033 115.532 26.3361C115.455 26.6689 115.446 27.0139 115.504 27.3506C115.562 27.6873 115.686 28.0089 115.87 28.2962C116.054 28.5834 116.293 28.8306 116.574 29.0231L117.315 29.5284C117.779 29.779 118.186 30.1239 118.511 30.5413C118.835 30.9587 119.07 31.4394 119.201 31.953C119.331 32.4667 119.354 33.0019 119.268 33.5249C119.182 34.0479 118.989 34.5472 118.701 34.9912C117.888 36.9405 116.86 38.7694 115.976 40.6706C113.227 46.5425 115.641 50.417 122.072 50.4892C126.853 50.4892 128.407 48.2752 126.303 44.1841C125.196 42.0472 124.834 39.598 125.275 37.2293C125.767 32.7516 126.986 28.3857 128.885 24.3063Z" fill="black"/>
<path d="M144.904 17.5921C144.227 17.5487 143.549 17.5487 142.872 17.5921C140.374 17.819 138.005 18.8099 136.083 20.4318C134.488 21.8978 133.534 23.9395 133.429 26.1112C133.27 28.0592 133.712 30.0092 134.696 31.6943C136.05 33.3141 137.93 34.3972 140.003 34.7505H140.362C141.16 34.9527 141.893 35.3589 142.49 35.9297C142.828 36.2925 143.059 36.7422 143.159 37.2293C143.303 37.6254 143.303 38.0604 143.159 38.4566C142.94 38.7442 142.651 38.9705 142.321 39.1138C141.99 39.257 141.628 39.3125 141.27 39.2748C140.533 39.3098 139.798 39.1612 139.131 38.8422C138.463 38.5232 137.885 38.0436 137.445 37.4458C136.872 36.6276 136.609 35.5206 135.772 35.0393C135.07 34.6776 134.258 34.6001 133.501 34.8227C132.49 34.967 131.541 35.3993 130.766 36.0688C129.99 36.7382 129.422 37.6168 129.126 38.601C128.979 39.4029 129.028 40.2291 129.27 41.0075C129.508 41.8129 129.854 42.5819 130.298 43.2937C132.202 46.1825 135.031 48.3283 138.314 49.3746C141.598 50.421 145.138 50.3047 148.346 49.0453C150.006 48.5394 151.46 47.5094 152.494 46.1074C153.527 44.7055 154.085 43.006 154.085 41.2602C154.085 39.5144 153.527 37.8149 152.494 36.4129C151.46 35.011 150.006 33.9809 148.346 33.4751C146.864 32.8253 145.263 32.3922 143.852 31.598C143.626 31.4586 143.43 31.2744 143.277 31.0566C143.124 30.8388 143.016 30.592 142.96 30.331C142.904 30.07 142.901 29.8004 142.952 29.5383C143.003 29.2763 143.106 29.0273 143.255 28.8065C143.512 28.4302 143.901 28.1647 144.343 28.0623C144.785 27.9598 145.25 28.0279 145.645 28.253C146.6 28.65 147.469 29.2304 148.203 29.9616C148.578 30.4349 149.044 30.8268 149.574 31.1136C150.103 31.4004 150.685 31.5761 151.284 31.6301C151.883 31.6841 152.486 31.6153 153.058 31.4277C153.63 31.2402 154.157 30.9379 154.61 30.5391C155.662 29.7934 156.398 28.6777 156.672 27.4123C156.947 26.1468 156.74 24.8239 156.092 23.7046C154.012 19.3248 150.307 17.4958 144.904 17.5921Z" fill="black"/>
<path d="M124.319 15.2819C125.232 14.4428 126.216 13.6859 127.26 13.0198C129.185 11.921 130.888 10.468 132.28 8.73618C132.699 8.18044 132.993 7.53963 133.142 6.85815C133.29 6.17667 133.29 5.47082 133.141 4.78949C133.016 4.36489 132.807 3.97012 132.527 3.62907C132.247 3.28802 131.9 3.00778 131.509 2.80531C131.118 2.60283 130.69 2.48234 130.252 2.45111C129.813 2.41988 129.373 2.47857 128.957 2.62363C128.085 3.02924 127.28 3.56468 126.566 4.21193L126.208 4.45258C126.086 4.29097 125.975 4.12221 125.873 3.94721C125.64 3.42246 125.25 2.98453 124.757 2.69523C124.263 2.40594 123.692 2.27988 123.124 2.33485C121.921 2.5847 120.844 3.25642 120.087 4.23038C119.33 5.20434 118.94 6.41731 118.988 7.65325C119.227 9.91537 121.188 11.4074 122.574 12.9716C123.294 13.6254 123.886 14.409 124.319 15.2819Z" fill="black"/>
</svg>
