<svg width="97" height="47" viewBox="0 0 97 47" fill="none" xmlns="http://www.w3.org/2000/svg">
<path d="M59.4172 27.1553C55.9637 28.2421 52.4956 29.2904 49.0547 30.4342C41.4886 32.9509 34.0552 35.7964 27.2184 40.0381C26.024 40.7737 24.7696 41.3733 23.5443 42.05C22.8834 42.4115 22.1716 42.7307 21.5561 43.1895C20.9808 43.6152 20.5 44.1988 19.9501 44.7383C19.4096 44.4433 18.8289 44.1813 18.2902 43.8679C17.524 43.439 17.3803 42.8491 17.8229 42.0946C17.9978 41.8149 18.2254 41.559 18.4366 41.2828C18.626 41.0417 18.85 40.8225 19.0558 40.6016C18.7374 39.9201 18.3661 39.7718 17.6997 40.1884C16.6619 40.8281 15.5623 41.3502 14.377 41.9938C15.347 42.7772 15.9984 43.8074 17.3764 44C18.6997 44.1871 19.0908 45.0615 18.6025 46.4614C18.0948 46.021 17.6216 45.6026 17.1466 45.2027C15.3905 43.6356 13.6343 42.0686 11.8581 40.5181C11.4686 40.1824 11.2467 39.8261 11.5344 39.3347C12.2429 38.1239 12.8313 36.8268 13.7109 35.7443C14.8017 34.3857 16.1109 33.2345 17.4183 31.916C17.3256 31.3683 17.0198 31.3008 16.3608 31.4582C15.0992 31.76 13.803 32.0398 12.5105 32.0971C10.6829 32.1756 10.1752 31.5495 10.2668 29.7018C10.2759 29.6098 10.2668 29.5161 10.2577 29.4223C9.94692 27.9246 10.0453 27.6744 11.3707 26.9147C11.7986 26.6787 12.2246 26.461 12.6325 26.2416C12.5344 25.3777 12.1522 25.3397 11.4258 25.4347C9.9549 25.6229 8.44759 25.8074 6.99317 25.6444C5.13829 25.4416 4.65086 24.0563 5.82361 22.613C6.36628 21.9613 6.20987 21.5001 5.91879 20.9141C5.7969 20.6606 5.63496 20.4403 5.49304 20.2034C4.99271 19.3181 5.06387 18.7867 5.97784 18.2833C6.85358 17.7946 7.80573 17.4621 8.78522 17.0394C8.79817 16.3537 8.52335 16.1593 7.7497 16.1753C6.18235 16.2239 4.59321 16.1218 3.02227 16.0215C2.63818 16.0019 2.25415 15.7967 1.9229 15.6152C0.912772 15.0507 0.669112 14.1724 1.4685 13.3419C2.30613 12.4966 3.30575 11.686 4.39268 11.1069C8.77681 8.79418 13.492 7.40558 18.2617 6.20807C24.7645 4.58849 31.2837 2.98909 37.8265 1.52203C43.8996 0.156869 50.0853 -0.120141 56.2817 0.0495647C60.9018 0.174133 65.5327 0.374057 70.1527 0.684305C74.4614 0.982209 78.6188 2.06353 82.798 3.10989C85.4883 3.78556 88.2132 4.29755 90.9016 4.99161C91.6898 5.19986 92.4068 5.75385 93.093 6.24906C93.315 6.41966 93.262 6.95289 93.3548 7.3149C93.0599 7.32275 92.7395 7.40235 92.4719 7.32007C89.6233 6.57297 86.7601 5.78728 83.9133 5.02179C83.6275 4.93771 83.3162 4.92536 83.0031 4.93141C86.2503 5.92235 89.4976 6.91328 92.834 7.93165C92.6719 8.26835 92.6154 8.467 92.5061 8.64183C92.1346 9.23626 92.3729 9.61273 92.9353 9.87284C93.2356 9.99551 93.5778 10.0666 93.8545 10.2426C94.3568 10.5525 95.0576 10.7149 94.9536 11.5773C94.939 11.7244 95.212 11.9372 95.3812 12.084C96.0746 12.6913 96.2655 13.5459 95.8028 14.317C95.6717 14.5268 95.415 14.7055 95.1874 14.7758C94.5266 14.9515 93.833 15.0869 93.1449 15.1671C92.7553 15.2027 92.3184 15.1593 91.9453 15.0294C89.8339 14.2627 87.7262 13.4592 85.6166 12.6741C85.4037 12.5972 85.1433 12.6271 84.9067 12.6036C84.8794 12.6937 84.8502 12.8022 84.8229 12.8923C86.8177 13.7218 88.8308 14.553 90.8275 15.3641C90.7983 15.4726 90.7892 15.5645 90.76 15.673C89.6933 15.6785 88.6266 15.684 87.467 15.6988C88.251 17.4293 87.3315 18.3592 85.9696 19.1153C85.6783 19.272 85.4598 19.6217 85.2649 19.918C84.4454 21.1364 83.5713 21.978 81.8348 21.6942C77.9431 21.0849 74.0946 21.7054 70.2662 22.495C74.191 22.0306 78.1121 21.7887 82.0111 22.5101C82.0366 22.6241 82.062 22.738 82.0875 22.852C81.1007 23.1625 80.1358 23.6237 79.1309 23.7467C75.967 24.1381 72.7777 24.4156 69.601 24.75C69.49 24.7576 69.3608 24.7633 69.1951 24.7654C69.0769 24.4752 68.975 24.2051 68.8586 23.8964C66.8542 24.4587 64.9044 25.0264 62.9419 25.5371C58.1103 26.8027 53.235 27.9526 48.4289 29.3322C46.2151 29.9665 44.1087 31.0014 41.964 31.8654C41.6764 31.9854 41.4487 32.2413 41.2848 32.5964C47.2835 30.6853 53.3003 28.7761 59.299 26.8651C59.3281 26.9422 59.3718 27.058 59.4172 27.1553ZM30.5856 23.7165C30.4946 23.7075 30.4236 23.6819 30.3326 23.6728C30.3958 19.5198 30.4225 15.3631 30.5403 11.2154C30.6176 8.40067 30.5921 8.28673 28.0841 7.07209C27.9439 7.00247 27.8038 6.93285 27.6618 6.88161C26.0364 6.21885 25.5157 6.46424 25.0729 8.14713C23.8044 12.9604 22.4814 17.7682 21.3203 22.6107C20.3853 26.473 19.6487 30.3735 18.8575 34.2686C18.4691 36.1426 19.0131 37.3293 20.4564 37.974C21.301 38.3549 21.7033 38.1906 21.922 37.2839C22.3431 35.4503 22.7095 33.6113 23.1488 31.7795C24.2333 27.3379 25.3542 22.8999 26.4587 18.4417C26.5315 18.449 26.6043 18.4562 26.6771 18.4634C26.6825 18.7796 26.7042 19.116 26.7096 19.4322C26.8487 22.8441 26.9332 26.2505 27.1451 29.6696C27.2918 32.0795 27.9615 32.7402 30.3224 33.216C31.7822 33.5096 32.1391 33.2479 32.52 31.8188C34.1147 25.7567 35.7457 19.6982 37.3604 13.6196C37.8015 11.9551 38.2971 10.296 38.6653 8.62424C38.9315 7.42514 38.5277 6.30807 37.798 5.32575C37.3595 4.74372 36.9681 4.79769 36.6111 5.43071C36.5 5.62393 36.4071 5.81896 36.3324 6.01579C34.935 10.0921 33.5211 14.1482 32.1601 18.2281C31.5916 20.0656 31.1141 21.9122 30.5856 23.7165ZM65.972 16.3123C66.0158 15.8711 66.0214 15.4445 66.0998 15.0252C66.5612 12.4158 66.8969 9.77523 67.5549 7.22241C67.9686 5.64803 67.4373 4.70398 66.3508 3.79764C65.1624 2.8069 64.8475 2.83133 63.9679 4.09948C61.1578 8.14689 58.8192 12.4454 56.8973 16.9895C56.7989 17.2397 56.6642 17.4863 56.5476 17.7346C56.4766 17.709 56.4056 17.6834 56.3346 17.6578C56.8691 14.1271 57.3307 10.5892 57.9725 7.08783C58.2625 5.46402 57.8642 4.29179 56.603 3.29382C55.4619 2.38205 54.974 2.48215 54.7569 3.92751C54.1477 7.84068 53.5185 11.7704 52.9985 15.711C52.7503 17.6546 52.6642 19.6329 52.6345 21.5982C52.592 23.5066 53.1161 24.1528 54.8889 24.8116C55.3494 24.9874 55.8117 25.1447 56.3796 25.3496C55.9936 25.5341 55.7041 25.6725 55.4147 25.8109C55.4274 25.8678 55.4419 25.9064 55.4729 25.9652C58.5113 25.1714 61.5661 24.3978 64.6045 23.604C64.5772 23.5084 64.5682 23.4147 64.5409 23.3191C62.187 23.8838 59.8531 24.4319 57.35 25.0189C59.1425 20.6662 60.8895 16.4018 62.6548 12.1392C62.744 12.1667 62.8332 12.1941 62.9405 12.2233C62.9113 12.5175 62.8657 12.7915 62.8547 13.0875C62.734 15.0438 62.5386 17.0112 62.5271 18.9783C62.5009 21.2782 62.9649 21.7885 65.1874 22.362C65.384 22.4187 65.6024 22.4404 65.819 22.4805C67.2479 22.7152 67.3881 22.5992 67.9438 21.2617C68.8419 19.067 69.7036 16.8686 70.7418 14.7435C72.2646 11.6266 73.9275 8.57943 75.5213 5.48821C76.0459 4.46332 76.3702 3.41856 75.6679 2.34611C75.1766 1.55459 74.6469 1.52055 74.1133 2.26601C73.2592 3.46242 72.3869 4.65702 71.6529 5.93963C69.7113 9.38625 67.8808 12.8253 65.972 16.3123ZM39.929 25.5171C40.2953 24.2351 40.7252 23.0523 40.975 21.833C41.1555 20.9411 41.6107 20.4292 42.399 20.0804C44.1505 19.2888 45.8873 18.4586 47.6388 17.6669C48.0812 17.4695 48.469 17.2666 48.2544 16.6511C47.7979 15.3245 46.5093 14.6024 45.153 14.9319C44.4557 15.1041 43.773 15.3148 42.921 15.5644C43.4931 13.8758 44.138 12.3801 44.5153 10.8021C44.9163 9.17073 45.8904 8.43188 47.3978 8.06165C49.3202 7.5841 51.2008 6.97241 53.1106 6.43788C53.5839 6.2992 54.019 6.1753 53.8626 5.52844C53.5409 4.14098 51.9521 2.9248 50.5249 3.04302C47.3901 3.32592 44.3408 4.04437 41.3787 5.17999C39.9842 5.70997 39.8748 6.07048 40.3786 7.47601C40.5514 7.95739 40.7296 8.56928 40.5911 9.03831C39.3556 13.5206 38.0144 17.9553 36.7971 22.4394C36.2485 24.446 35.8947 26.5277 35.4536 28.5636C35.2257 29.5622 35.5932 30.3043 36.4614 30.8176C37.3477 31.3327 38.1758 31.8791 39.2137 31.0538C39.993 30.4256 40.856 29.8799 41.7318 29.3913C43.5998 28.3513 45.4987 27.37 47.3976 26.3888C47.902 26.1232 48.2989 25.8284 47.9969 25.1671C47.4566 23.9436 46.0934 23.2326 44.8572 23.6483C43.2588 24.1952 41.6676 24.8542 39.929 25.5171ZM69.2874 2.73376C69.1818 2.68614 69.1654 2.66594 69.1473 2.66413C67.6728 2.51771 66.2166 2.3731 64.7421 2.22667C64.7403 2.24506 64.7385 2.26345 64.7366 2.28183C66.2111 2.42826 67.7037 2.57649 69.2874 2.73376Z" fill="#EC5AEF"/>
</svg>
