<svg width="105" height="35" viewBox="0 0 105 35" fill="none" xmlns="http://www.w3.org/2000/svg">
<path d="M104.432 33.5486L100.283 27.2195L101.83 24.6175L97.8214 18.218C97.3292 19.2728 96.9072 20.1871 96.415 21.2419C95.1491 19.3432 93.9536 17.5851 92.7581 15.7566C93.5317 15.194 94.3052 14.7018 95.0085 14.1392C97.4698 12.1701 98.5247 9.5681 97.9621 6.40351C97.4698 3.4499 94.1646 -0.136638 89.6638 0.0040104C84.1082 0.144659 80.381 5.4893 82.3501 10.6933C82.7721 11.8185 83.4753 12.8733 84.1082 13.9985C83.194 14.7721 82.1392 15.4753 81.1546 16.3192C81.014 16.4599 80.803 16.6005 80.6623 16.7412C76.5835 20.6793 76.7242 26.2349 79.3262 29.7511C81.4359 32.7048 84.2489 34.0409 87.4135 34.1816C88.5387 34.2519 89.7342 34.1816 90.9297 33.9003C92.7581 33.5486 94.3756 32.8454 95.9227 31.7202L96.415 32.3531L96.9776 33.1267L97.6105 33.9706H104.924L104.432 33.5486ZM87.4135 6.89578C87.5541 6.19254 88.0464 5.70027 88.82 5.4893C89.3122 5.34865 89.8045 5.34865 90.2968 5.41897C90.789 5.4893 91.211 5.70027 91.6329 5.98157C92.1955 6.40351 92.4065 6.82546 92.4768 7.45837C92.4768 7.88032 92.3362 8.30226 92.1252 8.72421C91.9142 9.07583 91.6329 9.42745 91.3516 9.77907C90.9297 10.201 90.4374 10.623 89.8748 10.9746C89.7342 11.1152 89.5232 11.1856 89.3122 11.3262C89.1716 11.1152 89.0309 10.9746 88.8903 10.7636C88.5387 10.3417 88.2574 9.8494 87.9761 9.35713C87.7651 8.93518 87.5541 8.51324 87.4838 8.09129C87.3431 7.73967 87.3431 7.31773 87.4135 6.89578ZM89.3122 28.204C87.7651 28.4853 86.0773 28.2743 85.0224 27.2898C83.616 25.9536 83.1237 24.0549 83.8269 22.3671C83.9676 22.0155 84.2489 21.6639 84.5302 21.3122C85.3741 20.398 86.3586 19.7651 87.3431 18.9212C89.1716 21.6639 90.8594 24.1955 92.5471 26.7975C91.9142 27.5008 90.6484 27.993 89.3122 28.204Z" fill="#FDE300"/>
<path d="M23.4883 10.4822C23.4883 5.48919 19.9017 0.425851 13.1506 0.425851C11.1112 0.425851 9.07182 0.425851 6.96209 0.425851C4.92269 0.425851 2.88329 0.425851 0.84389 0.425851H0V28.1336H6.46983V20.5386H13.0803C16.2449 20.5386 18.9172 19.4837 20.816 17.374C22.5037 15.5455 23.4883 13.1545 23.4883 10.4822ZM16.0339 13.2249C15.3307 13.9984 14.2758 14.4204 13.0803 14.4204H6.46983V6.75503H13.0803C15.7526 6.75503 17.0185 8.7241 17.0185 10.6229C17.0185 11.6074 16.6668 12.5919 16.0339 13.2249Z" fill="white"/>
<path d="M32.3497 0.496094L19.9727 28.2038H27.0051L29.2554 23.2811H41.9138L44.0939 28.2038H51.1966L38.7492 0.496094H32.3497ZM39.2415 17.1629H31.8574L35.5143 8.79435L39.2415 17.1629Z" fill="white"/>
<path d="M71.027 19.6244L70.4644 20.1869C68.9876 21.6638 66.6669 22.578 64.4165 22.578C58.4389 22.578 56.2589 18.4288 56.1886 14.4907C56.1886 12.0997 57.0324 9.91962 58.5093 8.44281C59.9861 6.966 61.9551 6.19243 64.4165 6.19243C66.6669 6.19243 68.7063 6.966 70.1831 8.44281L70.7457 9.0054L75.1761 4.78595L74.5432 4.22336C71.7302 1.48071 68.214 0.00390625 64.4165 0.00390625C60.1267 0.00390625 56.4699 1.41039 53.8679 4.01238C51.2659 6.6847 49.7891 10.4822 49.7891 14.561C49.8594 21.1012 53.6569 28.8368 64.4165 28.8368C68.5656 28.8368 72.1521 27.4303 74.8948 24.758L75.4574 24.1954L71.027 19.6244Z" fill="white"/>
<path d="M18.9183 34.3218C18.7777 34.3921 18.4964 34.4624 18.1448 34.4624C17.3712 34.4624 16.7383 33.9701 16.7383 32.9856C16.7383 32.0714 17.3712 31.5088 18.2151 31.5088C18.5667 31.5088 18.7777 31.5791 18.9183 31.6494L18.848 31.9307C18.7074 31.8604 18.4964 31.7901 18.2854 31.7901C17.5822 31.7901 17.1602 32.212 17.1602 32.9856C17.1602 33.6888 17.5822 34.1108 18.2854 34.1108C18.4964 34.1108 18.7074 34.0405 18.9183 33.9701V34.3218Z" fill="white"/>
<path d="M24.7539 31.6494C24.9649 31.5791 25.1758 31.5791 25.4571 31.5791C25.8791 31.5791 26.0901 31.6494 26.301 31.7901C26.4417 31.9307 26.512 32.1417 26.512 32.3527C26.512 32.7043 26.301 32.9856 25.9494 33.0559C26.1604 33.1262 26.301 33.3372 26.3714 33.6185C26.4417 34.0404 26.512 34.3217 26.5823 34.3921H26.2307C26.1604 34.3217 26.0901 34.0404 26.0197 33.6888C25.9494 33.2669 25.8088 33.1262 25.4571 33.1262H25.1055V34.4624H24.7539V31.6494ZM25.1055 32.9153H25.4571C25.8791 32.9153 26.0901 32.7043 26.0901 32.3527C26.0901 32.001 25.8088 31.7901 25.4571 31.7901C25.2462 31.7901 25.1759 31.7901 25.1055 31.7901V32.9153Z" fill="white"/>
<path d="M33.8987 33.1262H32.7735V34.1811H34.0393V34.4624H32.4219V31.5791H33.969V31.8604H32.7735V32.7746H33.8987V33.1262Z" fill="white"/>
<path d="M40.2969 33.5482L40.0156 34.4624H39.664L40.6485 31.5791H41.0704L42.055 34.4624H41.633L41.3517 33.5482H40.2969ZM41.2111 33.2669L40.9298 32.423C40.8595 32.212 40.7892 32.0714 40.7892 31.9307C40.7188 32.0714 40.7188 32.2824 40.6485 32.423L40.3672 33.2669H41.2111Z" fill="white"/>
<path d="M47.1172 31.9307V31.6494H49.2269V31.9307H48.383V34.4624H48.0314V31.9307H47.1172Z" fill="white"/>
<path d="M55.2774 31.5791V34.4624H54.9258V31.5791H55.2774Z" fill="white"/>
<path d="M61.8869 34.4624L60.9727 31.5791H61.3946L61.8165 32.9856C61.9572 33.3372 62.0275 33.6888 62.0978 34.0405C62.1682 33.6888 62.3088 33.3372 62.4495 32.9856L62.9417 31.5791H63.3637L62.3088 34.4624H61.8869Z" fill="white"/>
<path d="M70.4651 33.1262H69.3399V34.1811H70.6058V34.4624H68.9883V31.5791H70.5354V31.8604H69.3399V32.7746H70.4651V33.1262Z" fill="white"/>
<path d="M3.09426 32.9856C3.09426 35.025 0 35.025 0 32.9856C0 30.9462 3.09426 30.9462 3.09426 32.9856Z" fill="#FDE300"/>
<path d="M8.29739 32.9856C8.29739 35.025 5.20312 35.025 5.20312 32.9856C5.20312 30.9462 8.29739 30.9462 8.29739 32.9856Z" fill="#FDE300"/>
<path d="M13.4302 32.9856C13.4302 35.025 10.3359 35.025 10.3359 32.9856C10.3359 30.9462 13.4302 30.9462 13.4302 32.9856Z" fill="#FDE300"/>
</svg>
