<svg width="97" height="55" viewBox="0 0 97 55" fill="none" xmlns="http://www.w3.org/2000/svg">
<path d="M96.4182 40.9375C93.3896 40.9602 90.3723 40.9602 87.3436 40.9602C84.1902 40.9602 81.0254 40.9488 77.872 40.9488C66.4948 40.9488 55.1061 40.9488 43.7289 40.9488C43.4793 40.9488 43.1277 41.0963 43.0029 40.8241C42.8895 40.5632 43.2638 40.4044 43.3886 40.1888C43.9444 39.2133 44.7611 38.9751 45.8727 38.9865C57.4655 39.0318 69.047 39.0091 80.6398 39.0318C81.2296 39.0318 81.3544 38.8617 81.3544 38.3059C81.3431 37.0808 81.3431 35.8557 81.3431 34.6306C81.3431 33.2808 81.3431 31.931 81.3431 30.5811C81.3431 29.5489 81.309 28.5166 81.3431 27.4957C81.3544 27.1781 81.3544 26.0778 81.0595 26.0892C78.6434 26.1119 76.2272 26.0892 73.7998 26.0892C71.1001 26.0892 68.4004 26.0892 65.6894 26.0892C62.9783 26.0892 60.29 26.0892 57.579 26.0892C54.8793 26.0892 52.1796 26.0892 49.4685 26.1005C48.9921 26.1005 48.9694 25.8963 48.9808 25.522C49.0148 24.694 49.0035 23.8772 48.9581 23.0492C48.89 21.7107 48.7085 20.3835 48.4023 19.0791C48.2548 18.4211 48.0733 17.7746 47.8578 17.1394C47.6309 16.4701 47.4041 15.8009 47.1545 15.1429C47.0638 14.8821 46.939 14.6552 46.8029 14.4283C46.6781 14.2128 46.61 13.9633 46.4966 13.725C46.2811 13.3053 46.0656 12.897 45.8387 12.5C45.385 11.7059 44.8972 10.9459 44.3641 10.2086C42.9802 8.30297 41.3241 6.60149 39.4525 5.16089C35.5731 2.1209 31.1832 0.476133 26.3397 0.0791192C22.9934 -0.193119 19.7039 0.237925 16.5278 1.36091C11.2758 3.19851 7.09018 6.43134 4.01616 11.0821C2.23527 13.7818 1.02155 16.7197 0.431696 19.8958C0.125429 21.5065 -0.0106901 23.1399 0.000653133 24.7961C0.0460261 28.6641 0.930799 32.3053 2.70035 35.7423C3.51706 37.319 4.50392 38.7936 5.59287 40.1888C6.03526 40.5632 6.39824 41.0056 6.7272 41.4933C6.84063 41.5841 6.9654 41.6748 7.06749 41.7769C11.3893 46.0873 16.5958 48.5261 22.6871 48.9799C27.3379 49.3201 31.7617 48.4808 35.902 46.2802C36.5146 45.9512 36.6053 46.0079 36.6053 46.7112C36.6053 48.8324 36.6053 50.9422 36.6166 53.0634C36.6166 53.347 36.5713 53.6533 36.6734 53.9028C36.8775 54.3566 37.1952 53.778 37.456 53.9255C37.4674 53.9369 37.4901 53.9255 37.5128 53.9255C40.5187 53.9255 43.5247 53.9255 46.5306 53.9255C58.1575 53.9255 69.7843 53.9255 81.4111 53.9255C84.2242 53.9255 87.0374 53.9369 89.8618 53.9482C90.8827 53.9028 91.9036 53.9028 92.9245 53.9482C93.2308 53.9028 93.5257 53.9028 93.832 53.9595C94.3651 53.9028 94.8869 53.9142 95.42 53.9482C95.5335 53.9482 95.6469 53.9482 95.7603 53.9482C96.906 53.8574 96.8946 53.8574 96.8946 52.7004C96.8946 48.9572 96.906 45.2139 96.9173 41.4706C96.9173 41.119 96.8379 40.9261 96.4182 40.9375ZM79.6189 35.2092C79.6075 36.8426 78.3938 38.0676 76.8058 38.045C75.3084 38.0336 74.1741 36.7859 74.1855 35.1524C74.1968 33.485 75.3198 32.328 76.9192 32.3393C78.4959 32.3507 79.6302 33.5644 79.6189 35.2092ZM75.9891 27.8701C76.2953 27.4504 76.6243 27.2802 77.1234 27.3256C77.5204 27.3596 77.9174 27.3369 78.4505 27.3369C77.6905 28.3125 77.0099 29.1745 76.3407 30.048C74.4577 32.4981 72.5747 34.9369 70.7031 37.3984C70.4309 37.75 70.17 37.9202 69.7162 37.8748C69.2852 37.8408 68.8541 37.8635 68.355 37.8635C68.6273 37.2736 69.047 36.8653 69.3986 36.4115C71.6559 33.6098 73.8452 30.7513 75.9891 27.8701ZM69.8297 27.1895C71.395 27.1781 72.552 28.3125 72.5634 29.8892C72.5861 31.5566 71.4518 32.8384 69.9544 32.8498C68.2983 32.8611 67.164 31.7268 67.1527 30.048C67.1527 28.3351 68.2076 27.2008 69.8297 27.1895ZM56.9891 29.5602C57.9306 27.9495 59.3372 27.076 61.2428 27.1214C63.1825 27.1781 64.5551 28.1423 65.4058 29.8551C66.5401 32.1238 66.0297 35.1978 64.2601 36.8653C63.3867 37.682 62.3091 38.1017 61.0727 38.0903C58.5205 38.0676 56.6602 36.2754 56.2972 33.4963C56.1043 32.1011 56.2858 30.7739 56.9891 29.5602ZM45.2489 32.5775C45.2602 30.5925 45.9295 28.9137 47.6423 27.802C49.8202 26.3955 52.7581 27.1214 54.1306 29.3334C55.5032 31.5453 55.2423 34.6987 53.5294 36.6044C51.4536 38.9184 47.6196 38.4874 46.0429 35.7763C45.4644 34.7895 45.2148 33.7232 45.2489 32.5775ZM43.0369 27.2235C43.502 27.2575 43.6041 27.405 43.6041 27.8247C43.5814 29.4128 43.5927 31.0008 43.5927 32.5775C43.5927 34.1769 43.5814 35.7877 43.6041 37.3871C43.6041 37.7614 43.4907 37.8862 43.1277 37.8635C42.4925 37.8408 41.8459 37.8408 41.1993 37.8635C40.825 37.8748 40.7229 37.7614 40.7229 37.3871C40.7342 35.1411 40.7229 32.8951 40.7456 30.6492C40.7456 30.1501 40.7002 29.9345 40.099 30.0933C38.976 30.3883 38.9647 30.3429 38.6471 29.1859C38.3635 28.1196 38.3635 28.131 39.4411 27.802C40.6095 27.4617 41.7778 27.1328 43.0369 27.2235ZM25.8973 39.7805C25.2053 39.0091 24.6041 38.3512 24.0143 37.682C21.7343 35.0957 19.4543 32.5095 17.1743 29.9232C14.3725 26.7471 11.5594 23.571 8.75764 20.3949C8.03167 19.5668 7.3057 18.7274 6.59108 17.8994C6.4663 17.7519 6.33018 17.6271 6.14869 17.5591C7.79346 19.6008 9.42689 21.6426 11.0717 23.6731C14.5881 27.9948 18.1158 32.3053 21.6322 36.6271C22.8006 38.0563 23.9689 39.4856 25.1827 40.9715C24.3546 41.1303 23.5946 40.9829 22.8459 40.9148C19.9421 40.6539 17.1743 39.9279 14.6448 38.4193C11.6955 36.6497 9.56301 34.1429 8.07704 31.0689C6.0466 26.8378 5.40004 22.3346 5.51347 17.6952C5.52481 17.3322 5.55884 17.0032 6.03526 17.3322C5.80839 17.0146 5.95586 16.9579 6.26212 16.9806C7.23764 17.0826 8.20182 17.2641 9.15465 17.4797C12.3194 18.217 15.2233 19.5214 17.7528 21.5746C19.9307 23.3441 21.6322 25.522 22.9254 27.9948C24.6836 31.3524 25.6137 34.9369 25.8859 38.7029C25.92 39.0205 25.8973 39.3154 25.8973 39.7805ZM37.2859 26.0552C36.7868 26.0438 36.6166 26.1572 36.6166 26.7017C36.6507 28.9931 36.6053 31.273 36.6507 33.5644C36.662 34.0862 36.4578 34.4038 36.1175 34.7214C34.2005 36.4796 32.0113 37.7727 29.6292 38.7596C29.1188 38.9751 28.6083 39.2133 27.9504 39.3494C31.637 29.4695 35.2895 19.6576 38.9534 9.84565C38.908 9.83431 38.874 9.81162 38.8286 9.80028C34.8584 19.2946 30.877 28.7889 26.8615 38.3739C26.4985 37.7047 26.4077 37.0468 26.2603 36.4229C25.6704 33.8366 25.4209 31.205 25.5456 28.5507C25.9086 21.257 28.994 15.4606 35.074 11.3203C36.2423 10.5262 37.4787 9.84565 38.7605 9.22178C39.1462 9.02894 39.339 9.07431 39.5092 9.50536C41.1653 13.8725 41.948 18.3758 41.619 23.0492C41.551 23.968 41.3241 24.8755 41.1993 25.7829C41.1539 26.1005 40.9498 26.0552 40.7569 26.0665C39.5886 26.0665 38.4429 26.0892 37.2859 26.0552ZM49.4232 42.8658C48.5271 45.0664 47.6423 47.267 46.7575 49.479C46.3492 50.4998 45.9295 51.5094 45.5438 52.5303C45.4077 52.9046 45.1921 53.0748 44.7838 53.0407C44.3754 53.0067 43.9557 53.0294 43.536 53.0294C42.6059 53.0294 42.6172 53.018 42.2656 52.1219C41.0519 49.0706 39.8268 46.0306 38.5904 42.9906C38.3522 42.4008 38.3408 42.4008 38.9534 42.3894C39.6113 42.3894 40.2805 42.4235 40.9384 42.3781C41.4602 42.3441 41.6984 42.5255 41.8686 43.0246C42.5151 44.919 43.2071 46.7906 43.8877 48.6736C43.9104 48.7303 43.9444 48.7757 44.0351 48.9572C44.4775 47.7434 44.8745 46.6431 45.2829 45.5542C45.6232 44.6354 45.9635 43.7166 46.2811 42.7864C46.3832 42.4915 46.542 42.3781 46.8596 42.3894C47.6196 42.4121 48.3682 42.4121 49.1282 42.3894C49.5366 42.3781 49.582 42.4915 49.4232 42.8658ZM58.6112 52.9613C56.3425 52.9386 54.0739 52.95 51.8053 52.9386C50.6369 52.9386 50.6369 52.9273 50.6369 51.7476C50.6369 50.3864 50.6369 49.0252 50.6369 47.664C50.6369 46.0533 50.6482 44.4539 50.6256 42.8432C50.6256 42.4915 50.7163 42.3894 51.0679 42.3894C53.6202 42.4008 56.1724 42.4008 58.7246 42.3894C59.0536 42.3894 59.1443 42.5029 59.133 42.8205C59.1103 43.3536 59.099 43.8754 59.133 44.4085C59.1557 44.7942 59.0309 44.8963 58.6566 44.8849C57.1593 44.8623 55.6733 44.8963 54.176 44.8736C53.6882 44.8623 53.5181 44.987 53.5294 45.4975C53.5635 46.7112 53.4727 46.4617 54.4823 46.473C55.6733 46.4843 56.8643 46.4957 58.0554 46.473C58.4297 46.473 58.6225 46.5524 58.5998 46.9721C58.5772 47.4258 58.5772 47.8796 58.5998 48.3333C58.6225 48.6963 58.4637 48.7757 58.1348 48.7757C56.7736 48.7643 55.4124 48.787 54.0512 48.7643C53.6429 48.753 53.5408 48.8891 53.5408 49.2748C53.5294 50.4431 53.5181 50.4431 54.6864 50.4431C56.0249 50.4431 57.3748 50.4658 58.7133 50.4431C59.1216 50.4318 59.2464 50.5679 59.2237 50.9536C59.1897 51.4073 59.1784 51.861 59.2237 52.3148C59.2691 52.8139 59.1103 52.9613 58.6112 52.9613ZM70.5897 47.3351C70.5556 47.959 70.5783 48.5828 70.5783 49.2067C70.5783 49.2067 70.5783 49.2067 70.567 49.2067C70.567 49.8306 70.5443 50.4545 70.5783 51.0784C70.5897 51.43 70.4649 51.6455 70.1813 51.827C67.9694 53.2789 65.6327 53.5739 63.1825 52.5189C61.0273 51.5888 59.8136 48.8778 60.4034 46.4276C61.1407 43.3423 64.158 41.5954 67.4816 42.3214C68.3437 42.5142 69.1264 42.8658 69.841 43.3763C70.1359 43.5805 70.1813 43.7846 69.9318 44.0682C69.5574 44.4993 69.1944 44.919 68.8541 45.384C68.6046 45.7243 68.4004 45.7357 68.0715 45.4861C67.2434 44.8623 66.3133 44.6467 65.2924 44.8849C64.0106 45.1799 63.1712 46.439 63.2733 47.9022C63.364 49.3542 64.3282 50.4431 65.6553 50.5793C66.2565 50.636 66.8577 50.6133 67.4362 50.3864C68.0828 50.1255 67.7312 49.5584 67.7879 49.15C67.8333 48.787 67.4362 48.9231 67.2207 48.9231C65.7121 48.9231 65.7348 48.9231 65.7007 47.4031C65.6894 46.87 65.8595 46.7225 66.37 46.7339C67.5837 46.7679 68.7861 46.7566 69.9998 46.7339C70.4422 46.7339 70.6123 46.8814 70.5897 47.3351ZM82.5681 52.95C82.2165 52.916 81.8535 52.9386 81.4905 52.9386C80.0272 52.9386 80.0046 52.9386 79.4828 51.5661C79.324 51.1578 79.1425 50.999 78.6774 51.0103C77.6792 51.0557 76.681 51.033 75.6714 51.0103C75.3198 50.999 75.127 51.1124 75.0022 51.4527C74.4237 52.9386 74.4123 52.9273 72.8356 52.9273C72.5294 52.9273 72.2344 52.916 71.9282 52.9273C71.4971 52.95 71.395 52.8139 71.5765 52.4055C72.1097 51.1918 72.6088 49.9781 73.1192 48.7643C73.9699 46.7452 74.8207 44.7375 75.6488 42.7184C75.7622 42.4348 75.8983 42.2873 76.2159 42.2987C76.8965 42.31 77.5771 42.3214 78.2577 42.2987C78.5413 42.2873 78.7001 42.3894 78.8135 42.6617C79.6756 44.7261 80.5377 46.7906 81.4111 48.8551C81.9102 50.0348 82.4093 51.2145 82.9084 52.3828C83.1013 52.7798 83.0786 52.9954 82.5681 52.95ZM93.7299 52.9386C93.7072 52.9386 93.6958 52.9386 93.6732 52.9386C91.6768 53.0407 91.6768 53.0407 90.4517 51.4754C89.3741 50.1028 88.2851 48.7303 87.1848 47.3351C86.9466 47.5506 87.0487 47.8115 87.0487 48.027C87.0487 49.479 87.0601 50.9309 87.0941 52.3828C87.1054 52.7912 86.9807 52.9613 86.5496 52.9386C85.9144 52.9046 85.2678 52.916 84.6213 52.9386C84.2696 52.95 84.1448 52.8252 84.1789 52.4849C84.2016 52.3034 84.1675 52.1106 84.1675 51.9178C84.1675 48.9005 84.1675 45.8718 84.1448 42.8545C84.1448 42.5255 84.2356 42.3441 84.5872 42.3894C84.6213 42.3894 84.6666 42.3894 84.7007 42.3894C86.9807 42.3667 86.9693 42.3781 88.3872 44.2951C89.2606 45.4861 90.1568 46.6658 91.223 47.9022C91.223 46.2348 91.223 44.7148 91.223 43.1948C91.223 42.4008 91.2117 42.4008 92.0057 42.4008C92.5729 42.4008 93.14 42.4121 93.7072 42.4008C94.0135 42.3894 94.1496 42.4688 94.1496 42.8091C94.1382 46.042 94.1496 49.2748 94.1496 52.4963C94.1496 52.7912 94.0588 52.9727 93.7299 52.9386Z" fill="black"/>
<path d="M48.4449 34.1996C48.7399 34.9823 49.3978 35.5041 50.1237 35.4927C50.9404 35.4814 51.4509 34.9936 51.7345 34.279C52.2222 33.0653 52.1882 31.8402 51.5984 30.6719C50.9858 29.4581 49.5566 29.3674 48.7399 30.4563C48.2634 31.0916 48.1614 31.8289 48.1727 32.6002C48.1954 32.9065 48.1954 33.2014 48.2408 33.4963C48.2861 33.7345 48.3655 33.9727 48.4449 34.1996Z" fill="black"/>
<path d="M61.2217 35.4816C62.0158 35.4249 62.4582 34.9258 62.7644 34.2452C63.0026 33.7121 63.0026 33.1449 63.048 32.6345C63.014 31.9766 62.9686 31.3754 62.6964 30.8195C62.4014 30.2183 61.9704 29.7533 61.2558 29.6966C60.5752 29.6398 60.042 29.9234 59.7017 30.5246C58.9644 31.8177 58.9985 33.1562 59.5997 34.4721C59.8946 35.13 60.4391 35.527 61.2217 35.4816Z" fill="black"/>
<path d="M77.2388 45.8154C76.8985 46.6435 76.6263 47.3127 76.354 47.982C76.0364 48.7533 76.0364 48.7533 76.8418 48.7533C77.2501 48.7533 77.6698 48.7533 78.0782 48.7533C78.271 48.7533 78.4185 48.7306 78.3051 48.4697C77.9761 47.653 77.6358 46.8136 77.2388 45.8154Z" fill="black"/>
<path d="M76.102 34.6302C76.034 34.8457 75.9999 35.0726 76.0226 35.2995C76.068 35.912 76.4537 36.3657 76.9187 36.3657C77.4178 36.3657 77.7695 35.8893 77.7695 35.1407C77.7468 35.0159 77.7355 34.8004 77.6674 34.6075C77.5426 34.2332 77.2931 33.9837 76.8734 33.995C76.465 34.0063 76.2268 34.2445 76.102 34.6302Z" fill="black"/>
<path d="M69.897 31.1711C70.3961 31.1484 70.6116 30.8081 70.691 30.3544C70.7137 30.241 70.7024 30.1275 70.7137 30.0708C70.7137 29.3222 70.3621 28.8231 69.863 28.8117C69.3185 28.8004 68.9782 29.2995 68.9895 30.0368C68.9895 30.1729 68.9782 30.309 69.0236 30.4338C69.1597 30.8535 69.3979 31.1938 69.897 31.1711Z" fill="black"/>
</svg>
